<mxfile host="65bd71144e">
    <diagram id="LZ8GwimALvkmILguiknl" name="Page-1">
        <mxGraphModel dx="1206" dy="576" grid="1" gridSize="10" guides="1" tooltips="1" connect="1" arrows="1" fold="1" page="1" pageScale="1" pageWidth="850" pageHeight="1100" math="0" shadow="0">
            <root>
                <mxCell id="0"/>
                <mxCell id="1" parent="0"/>
                <mxCell id="24" value="" style="group" parent="1" vertex="1" connectable="0">
                    <mxGeometry x="160" y="30" width="120" height="1462" as="geometry"/>
                </mxCell>
                <mxCell id="3" value="ProductController" style="rounded=0;whiteSpace=wrap;html=1;" parent="24" vertex="1">
                    <mxGeometry width="120" height="60" as="geometry"/>
                </mxCell>
                <mxCell id="18" value="" style="endArrow=none;html=1;" parent="24" edge="1">
                    <mxGeometry width="50" height="50" relative="1" as="geometry">
                        <mxPoint x="59.170000000000016" y="1462" as="sourcePoint"/>
                        <mxPoint x="59.170000000000016" y="60" as="targetPoint"/>
                    </mxGeometry>
                </mxCell>
                <mxCell id="33" value="" style="html=1;points=[[0,0,0,0,5],[0,1,0,0,-5],[1,0,0,0,5],[1,1,0,0,-5]];perimeter=orthogonalPerimeter;outlineConnect=0;targetShapes=umlLifeline;portConstraint=eastwest;newEdgeStyle={&quot;curved&quot;:0,&quot;rounded&quot;:0};" parent="24" vertex="1">
                    <mxGeometry x="55" y="150" width="10" height="240" as="geometry"/>
                </mxCell>
                <mxCell id="56" value="BP009　修正入力画面" style="html=1;verticalAlign=bottom;endArrow=open;dashed=1;endSize=8;curved=0;rounded=0;" parent="24" edge="1">
                    <mxGeometry relative="1" as="geometry">
                        <mxPoint x="65" y="390" as="sourcePoint"/>
                        <mxPoint x="-90" y="390" as="targetPoint"/>
                    </mxGeometry>
                </mxCell>
                <mxCell id="68" value="" style="html=1;points=[[0,0,0,0,5],[0,1,0,0,-5],[1,0,0,0,5],[1,1,0,0,-5]];perimeter=orthogonalPerimeter;outlineConnect=0;targetShapes=umlLifeline;portConstraint=eastwest;newEdgeStyle={&quot;curved&quot;:0,&quot;rounded&quot;:0};" parent="24" vertex="1">
                    <mxGeometry x="55" y="610" width="10" height="130" as="geometry"/>
                </mxCell>
                <mxCell id="69" value="confirm()" style="html=1;verticalAlign=bottom;endArrow=block;curved=0;rounded=0;entryX=0;entryY=0;entryDx=0;entryDy=5;" parent="24" target="68" edge="1">
                    <mxGeometry relative="1" as="geometry">
                        <mxPoint x="-90" y="615" as="sourcePoint"/>
                    </mxGeometry>
                </mxCell>
                <mxCell id="70" value="BP010（修正内容確認画面）" style="html=1;verticalAlign=bottom;endArrow=open;dashed=1;endSize=8;curved=0;rounded=0;exitX=0;exitY=1;exitDx=0;exitDy=-5;" parent="24" source="68" edge="1">
                    <mxGeometry relative="1" as="geometry">
                        <mxPoint x="-90" y="735" as="targetPoint"/>
                    </mxGeometry>
                </mxCell>
                <mxCell id="82" value="" style="html=1;points=[[0,0,0,0,5],[0,1,0,0,-5],[1,0,0,0,5],[1,1,0,0,-5]];perimeter=orthogonalPerimeter;outlineConnect=0;targetShapes=umlLifeline;portConstraint=eastwest;newEdgeStyle={&quot;curved&quot;:0,&quot;rounded&quot;:0};" parent="24" vertex="1">
                    <mxGeometry x="55" y="880" width="10" height="250" as="geometry"/>
                </mxCell>
                <mxCell id="83" value="editProduct()" style="html=1;verticalAlign=bottom;endArrow=block;curved=0;rounded=0;entryX=0;entryY=0;entryDx=0;entryDy=5;" parent="24" target="82" edge="1">
                    <mxGeometry relative="1" as="geometry">
                        <mxPoint x="-90" y="885" as="sourcePoint"/>
                    </mxGeometry>
                </mxCell>
                <mxCell id="84" value="リダイレクト" style="html=1;verticalAlign=bottom;endArrow=open;dashed=1;endSize=8;curved=0;rounded=0;exitX=0;exitY=1;exitDx=0;exitDy=-5;" parent="24" source="82" edge="1">
                    <mxGeometry relative="1" as="geometry">
                        <mxPoint x="-100" y="1125" as="targetPoint"/>
                    </mxGeometry>
                </mxCell>
                <mxCell id="115" value="" style="html=1;points=[[0,0,0,0,5],[0,1,0,0,-5],[1,0,0,0,5],[1,1,0,0,-5]];perimeter=orthogonalPerimeter;outlineConnect=0;targetShapes=umlLifeline;portConstraint=eastwest;newEdgeStyle={&quot;curved&quot;:0,&quot;rounded&quot;:0};" parent="24" vertex="1">
                    <mxGeometry x="55" y="1160" width="10" height="80" as="geometry"/>
                </mxCell>
                <mxCell id="116" value="editProductComplete" style="html=1;verticalAlign=bottom;endArrow=block;curved=0;rounded=0;entryX=0;entryY=0;entryDx=0;entryDy=5;" parent="24" target="115" edge="1">
                    <mxGeometry relative="1" as="geometry">
                        <mxPoint x="-90" y="1165" as="sourcePoint"/>
                    </mxGeometry>
                </mxCell>
                <mxCell id="117" value="BP011（修正完了画面）" style="html=1;verticalAlign=bottom;endArrow=open;dashed=1;endSize=8;curved=0;rounded=0;exitX=0;exitY=1;exitDx=0;exitDy=-5;" parent="24" source="115" edge="1">
                    <mxGeometry relative="1" as="geometry">
                        <mxPoint x="-90" y="1235" as="targetPoint"/>
                    </mxGeometry>
                </mxCell>
                <mxCell id="118" value="セッション破棄" style="html=1;align=left;spacingLeft=2;endArrow=block;rounded=0;edgeStyle=orthogonalEdgeStyle;curved=0;rounded=0;" parent="24" edge="1">
                    <mxGeometry relative="1" as="geometry">
                        <mxPoint x="65" y="1188" as="sourcePoint"/>
                        <Array as="points">
                            <mxPoint x="136" y="1188"/>
                            <mxPoint x="136" y="1212"/>
                        </Array>
                        <mxPoint x="65" y="1212" as="targetPoint"/>
                    </mxGeometry>
                </mxCell>
                <mxCell id="119" value="FlashScopeにセット" style="html=1;align=left;spacingLeft=2;endArrow=block;rounded=0;edgeStyle=orthogonalEdgeStyle;curved=0;rounded=0;" edge="1" parent="24">
                    <mxGeometry relative="1" as="geometry">
                        <mxPoint x="65" y="1090" as="sourcePoint"/>
                        <Array as="points">
                            <mxPoint x="136" y="1090"/>
                            <mxPoint x="136" y="1114"/>
                        </Array>
                        <mxPoint x="65" y="1114" as="targetPoint"/>
                    </mxGeometry>
                </mxCell>
                <mxCell id="25" value="" style="group" parent="1" vertex="1" connectable="0">
                    <mxGeometry x="350" y="30" width="120" height="1462" as="geometry"/>
                </mxCell>
                <mxCell id="5" value="ProductForm" style="rounded=0;whiteSpace=wrap;html=1;" parent="25" vertex="1">
                    <mxGeometry width="120" height="60" as="geometry"/>
                </mxCell>
                <mxCell id="19" value="" style="endArrow=none;html=1;" parent="25" edge="1">
                    <mxGeometry width="50" height="50" relative="1" as="geometry">
                        <mxPoint x="59.170000000000016" y="1462" as="sourcePoint"/>
                        <mxPoint x="59.170000000000016" y="60" as="targetPoint"/>
                    </mxGeometry>
                </mxCell>
                <mxCell id="71" value="" style="html=1;points=[[0,0,0,0,5],[0,1,0,0,-5],[1,0,0,0,5],[1,1,0,0,-5]];perimeter=orthogonalPerimeter;outlineConnect=0;targetShapes=umlLifeline;portConstraint=eastwest;newEdgeStyle={&quot;curved&quot;:0,&quot;rounded&quot;:0};" parent="25" vertex="1">
                    <mxGeometry x="55" y="630" width="10" height="50" as="geometry"/>
                </mxCell>
                <mxCell id="76" value="バリデート" style="html=1;align=left;spacingLeft=2;endArrow=block;rounded=0;edgeStyle=orthogonalEdgeStyle;curved=0;rounded=0;" parent="25" edge="1">
                    <mxGeometry x="0.0602" y="24" relative="1" as="geometry">
                        <mxPoint x="65" y="643" as="sourcePoint"/>
                        <Array as="points">
                            <mxPoint x="136" y="643"/>
                            <mxPoint x="136" y="667"/>
                        </Array>
                        <mxPoint x="65" y="667" as="targetPoint"/>
                        <mxPoint as="offset"/>
                    </mxGeometry>
                </mxCell>
                <mxCell id="26" value="" style="group" parent="1" vertex="1" connectable="0">
                    <mxGeometry x="540" y="30" width="120" height="1462" as="geometry"/>
                </mxCell>
                <mxCell id="6" value="ProductHelper" style="rounded=0;whiteSpace=wrap;html=1;" parent="26" vertex="1">
                    <mxGeometry width="120" height="60" as="geometry"/>
                </mxCell>
                <mxCell id="20" value="" style="endArrow=none;html=1;" parent="26" edge="1">
                    <mxGeometry width="50" height="50" relative="1" as="geometry">
                        <mxPoint x="59.16999999999996" y="1462" as="sourcePoint"/>
                        <mxPoint x="59.16999999999996" y="60" as="targetPoint"/>
                    </mxGeometry>
                </mxCell>
                <mxCell id="100" value="" style="html=1;points=[[0,0,0,0,5],[0,1,0,0,-5],[1,0,0,0,5],[1,1,0,0,-5]];perimeter=orthogonalPerimeter;outlineConnect=0;targetShapes=umlLifeline;portConstraint=eastwest;newEdgeStyle={&quot;curved&quot;:0,&quot;rounded&quot;:0};" parent="26" vertex="1">
                    <mxGeometry x="55" y="900" width="10" height="80" as="geometry"/>
                </mxCell>
                <mxCell id="27" value="" style="group" parent="1" vertex="1" connectable="0">
                    <mxGeometry x="790" y="30" width="120" height="1462" as="geometry"/>
                </mxCell>
                <mxCell id="7" value="ProductService" style="rounded=0;whiteSpace=wrap;html=1;" parent="27" vertex="1">
                    <mxGeometry width="120" height="60" as="geometry"/>
                </mxCell>
                <mxCell id="21" value="" style="endArrow=none;html=1;" parent="27" edge="1">
                    <mxGeometry width="50" height="50" relative="1" as="geometry">
                        <mxPoint x="60" y="1462" as="sourcePoint"/>
                        <mxPoint x="60" y="60" as="targetPoint"/>
                    </mxGeometry>
                </mxCell>
                <mxCell id="35" value="" style="html=1;points=[[0,0,0,0,5],[0,1,0,0,-5],[1,0,0,0,5],[1,1,0,0,-5]];perimeter=orthogonalPerimeter;outlineConnect=0;targetShapes=umlLifeline;portConstraint=eastwest;newEdgeStyle={&quot;curved&quot;:0,&quot;rounded&quot;:0};" parent="27" vertex="1">
                    <mxGeometry x="55" y="175" width="10" height="115" as="geometry"/>
                </mxCell>
                <mxCell id="104" value="" style="html=1;points=[[0,0,0,0,5],[0,1,0,0,-5],[1,0,0,0,5],[1,1,0,0,-5]];perimeter=orthogonalPerimeter;outlineConnect=0;targetShapes=umlLifeline;portConstraint=eastwest;newEdgeStyle={&quot;curved&quot;:0,&quot;rounded&quot;:0};" parent="27" vertex="1">
                    <mxGeometry x="55" y="1000" width="10" height="80" as="geometry"/>
                </mxCell>
                <mxCell id="28" value="" style="group" parent="1" vertex="1" connectable="0">
                    <mxGeometry x="1030" y="40" width="120" height="1462" as="geometry"/>
                </mxCell>
                <mxCell id="8" value="ProductRepository" style="rounded=0;whiteSpace=wrap;html=1;" parent="28" vertex="1">
                    <mxGeometry width="120" height="60" as="geometry"/>
                </mxCell>
                <mxCell id="22" value="" style="endArrow=none;html=1;" parent="28" edge="1">
                    <mxGeometry width="50" height="50" relative="1" as="geometry">
                        <mxPoint x="59.17000000000007" y="1462" as="sourcePoint"/>
                        <mxPoint x="59.17000000000007" y="60" as="targetPoint"/>
                    </mxGeometry>
                </mxCell>
                <mxCell id="47" value="" style="html=1;points=[[0,0,0,0,5],[0,1,0,0,-5],[1,0,0,0,5],[1,1,0,0,-5]];perimeter=orthogonalPerimeter;outlineConnect=0;targetShapes=umlLifeline;portConstraint=eastwest;newEdgeStyle={&quot;curved&quot;:0,&quot;rounded&quot;:0};" parent="28" vertex="1">
                    <mxGeometry x="50" y="190" width="10" height="80" as="geometry"/>
                </mxCell>
                <mxCell id="107" value="" style="html=1;points=[[0,0,0,0,5],[0,1,0,0,-5],[1,0,0,0,5],[1,1,0,0,-5]];perimeter=orthogonalPerimeter;outlineConnect=0;targetShapes=umlLifeline;portConstraint=eastwest;newEdgeStyle={&quot;curved&quot;:0,&quot;rounded&quot;:0};" parent="28" vertex="1">
                    <mxGeometry x="55" y="1000" width="10" height="50" as="geometry"/>
                </mxCell>
                <mxCell id="29" value="" style="group" parent="1" vertex="1" connectable="0">
                    <mxGeometry x="1310" y="10" width="60" height="1482" as="geometry"/>
                </mxCell>
                <mxCell id="9" value="DB" style="shape=cylinder3;whiteSpace=wrap;html=1;boundedLbl=1;backgroundOutline=1;size=15;" parent="29" vertex="1">
                    <mxGeometry width="60" height="80" as="geometry"/>
                </mxCell>
                <mxCell id="23" value="" style="endArrow=none;html=1;" parent="29" edge="1">
                    <mxGeometry width="50" height="50" relative="1" as="geometry">
                        <mxPoint x="29.170000000000073" y="1482" as="sourcePoint"/>
                        <mxPoint x="29.170000000000073" y="80" as="targetPoint"/>
                    </mxGeometry>
                </mxCell>
                <mxCell id="53" value="" style="html=1;points=[[0,0,0,0,5],[0,1,0,0,-5],[1,0,0,0,5],[1,1,0,0,-5]];perimeter=orthogonalPerimeter;outlineConnect=0;targetShapes=umlLifeline;portConstraint=eastwest;newEdgeStyle={&quot;curved&quot;:0,&quot;rounded&quot;:0};" parent="29" vertex="1">
                    <mxGeometry x="25" y="220" width="10" height="50" as="geometry"/>
                </mxCell>
                <mxCell id="111" value="" style="html=1;points=[[0,0,0,0,5],[0,1,0,0,-5],[1,0,0,0,5],[1,1,0,0,-5]];perimeter=orthogonalPerimeter;outlineConnect=0;targetShapes=umlLifeline;portConstraint=eastwest;newEdgeStyle={&quot;curved&quot;:0,&quot;rounded&quot;:0};" parent="29" vertex="1">
                    <mxGeometry x="25" y="1040" width="10" height="30" as="geometry"/>
                </mxCell>
                <mxCell id="112" value="SQL(UPDATE)" style="html=1;verticalAlign=bottom;endArrow=block;curved=0;rounded=0;entryX=0;entryY=0;entryDx=0;entryDy=5;" parent="29" target="111" edge="1">
                    <mxGeometry relative="1" as="geometry">
                        <mxPoint x="-210" y="1045" as="sourcePoint"/>
                    </mxGeometry>
                </mxCell>
                <mxCell id="30" value="" style="group" parent="1" vertex="1" connectable="0">
                    <mxGeometry x="50" y="30" width="30" height="1462" as="geometry"/>
                </mxCell>
                <mxCell id="2" value="Actor" style="shape=umlActor;verticalLabelPosition=bottom;verticalAlign=top;html=1;outlineConnect=0;" parent="30" vertex="1">
                    <mxGeometry width="30" height="60" as="geometry"/>
                </mxCell>
                <mxCell id="16" value="" style="endArrow=none;html=1;" parent="30" target="2" edge="1">
                    <mxGeometry width="50" height="50" relative="1" as="geometry">
                        <mxPoint x="15" y="1462" as="sourcePoint"/>
                        <mxPoint x="770" y="60" as="targetPoint"/>
                    </mxGeometry>
                </mxCell>
                <mxCell id="62" value="画面入力" style="html=1;align=left;spacingLeft=2;endArrow=block;rounded=0;edgeStyle=orthogonalEdgeStyle;curved=0;rounded=0;" parent="30" edge="1">
                    <mxGeometry relative="1" as="geometry">
                        <mxPoint x="15" y="430" as="sourcePoint"/>
                        <Array as="points">
                            <mxPoint x="80" y="430"/>
                            <mxPoint x="80" y="500"/>
                        </Array>
                        <mxPoint x="15" y="500" as="targetPoint"/>
                    </mxGeometry>
                </mxCell>
                <mxCell id="31" value="getProductById()" style="html=1;verticalAlign=bottom;endArrow=block;curved=0;rounded=0;" parent="1" edge="1">
                    <mxGeometry width="80" relative="1" as="geometry">
                        <mxPoint x="60" y="180" as="sourcePoint"/>
                        <mxPoint x="220" y="180" as="targetPoint"/>
                    </mxGeometry>
                </mxCell>
                <mxCell id="36" value="getProductById(Integer)" style="html=1;verticalAlign=bottom;endArrow=block;curved=0;rounded=0;entryX=0;entryY=0;entryDx=0;entryDy=5;" parent="1" source="33" target="35" edge="1">
                    <mxGeometry x="0.0014" relative="1" as="geometry">
                        <mxPoint x="330" y="205" as="sourcePoint"/>
                        <mxPoint as="offset"/>
                    </mxGeometry>
                </mxCell>
                <mxCell id="37" value="Product" style="html=1;verticalAlign=bottom;endArrow=open;dashed=1;endSize=8;curved=0;rounded=0;exitX=0;exitY=1;exitDx=0;exitDy=-5;" parent="1" source="35" target="33" edge="1">
                    <mxGeometry relative="1" as="geometry">
                        <mxPoint x="330" y="275" as="targetPoint"/>
                    </mxGeometry>
                </mxCell>
                <mxCell id="48" value="selectById(Integer)" style="html=1;verticalAlign=bottom;endArrow=block;curved=0;rounded=0;entryX=0;entryY=0;entryDx=0;entryDy=5;" parent="1" source="35" target="47" edge="1">
                    <mxGeometry relative="1" as="geometry">
                        <mxPoint x="1010" y="225" as="sourcePoint"/>
                    </mxGeometry>
                </mxCell>
                <mxCell id="49" value="Product" style="html=1;verticalAlign=bottom;endArrow=open;dashed=1;endSize=8;curved=0;rounded=0;exitX=0;exitY=1;exitDx=0;exitDy=-5;" parent="1" source="47" target="35" edge="1">
                    <mxGeometry relative="1" as="geometry">
                        <mxPoint x="1010" y="295" as="targetPoint"/>
                    </mxGeometry>
                </mxCell>
                <mxCell id="54" value="SQL(SELECT PRODUCT WHERE ID = &quot; &quot;)" style="html=1;verticalAlign=bottom;endArrow=block;curved=0;rounded=0;entryX=0;entryY=0;entryDx=0;entryDy=5;" parent="1" source="47" target="53" edge="1">
                    <mxGeometry relative="1" as="geometry">
                        <mxPoint x="1090" y="235" as="sourcePoint"/>
                    </mxGeometry>
                </mxCell>
                <mxCell id="55" value="Product" style="html=1;verticalAlign=bottom;endArrow=open;dashed=1;endSize=8;curved=0;rounded=0;exitX=0;exitY=1;exitDx=0;exitDy=-5;" parent="1" source="53" target="47" edge="1">
                    <mxGeometry relative="1" as="geometry">
                        <mxPoint x="1230" y="275" as="targetPoint"/>
                    </mxGeometry>
                </mxCell>
                <mxCell id="63" value="" style="group" parent="1" vertex="1" connectable="0">
                    <mxGeometry y="100" width="1421.3333740234375" height="40" as="geometry"/>
                </mxCell>
                <mxCell id="13" value="" style="endArrow=none;dashed=1;html=1;" parent="63" source="14" edge="1">
                    <mxGeometry width="50" height="50" relative="1" as="geometry">
                        <mxPoint y="20" as="sourcePoint"/>
                        <mxPoint x="1421.3333740234375" y="20" as="targetPoint"/>
                    </mxGeometry>
                </mxCell>
                <mxCell id="15" value="" style="endArrow=none;dashed=1;html=1;" parent="63" target="14" edge="1">
                    <mxGeometry width="50" height="50" relative="1" as="geometry">
                        <mxPoint y="20" as="sourcePoint"/>
                        <mxPoint x="1421.3333740234375" y="20" as="targetPoint"/>
                    </mxGeometry>
                </mxCell>
                <mxCell id="14" value="修正内容入力" style="rounded=0;whiteSpace=wrap;html=1;" parent="63" vertex="1">
                    <mxGeometry x="670" width="100" height="40" as="geometry"/>
                </mxCell>
                <mxCell id="64" value="" style="group" parent="1" vertex="1" connectable="0">
                    <mxGeometry x="20" y="560" width="1421.3333740234375" height="40" as="geometry"/>
                </mxCell>
                <mxCell id="65" value="" style="endArrow=none;dashed=1;html=1;" parent="64" source="67" edge="1">
                    <mxGeometry width="50" height="50" relative="1" as="geometry">
                        <mxPoint y="20" as="sourcePoint"/>
                        <mxPoint x="1421.3333740234375" y="20" as="targetPoint"/>
                    </mxGeometry>
                </mxCell>
                <mxCell id="66" value="" style="endArrow=none;dashed=1;html=1;" parent="64" target="67" edge="1">
                    <mxGeometry width="50" height="50" relative="1" as="geometry">
                        <mxPoint y="20" as="sourcePoint"/>
                        <mxPoint x="1421.3333740234375" y="20" as="targetPoint"/>
                    </mxGeometry>
                </mxCell>
                <mxCell id="67" value="修正内容確認" style="rounded=0;whiteSpace=wrap;html=1;" parent="64" vertex="1">
                    <mxGeometry x="670" width="100" height="40" as="geometry"/>
                </mxCell>
                <mxCell id="73" value="ProductForm" style="html=1;verticalAlign=bottom;endArrow=open;dashed=1;endSize=8;curved=0;rounded=0;exitX=0;exitY=1;exitDx=0;exitDy=-5;" parent="1" source="71" target="68" edge="1">
                    <mxGeometry relative="1" as="geometry">
                        <mxPoint x="330" y="735" as="targetPoint"/>
                    </mxGeometry>
                </mxCell>
                <mxCell id="72" value="修正版商品情報をセット" style="html=1;verticalAlign=bottom;endArrow=block;curved=0;rounded=0;entryX=0;entryY=0;entryDx=0;entryDy=5;" parent="1" source="68" target="71" edge="1">
                    <mxGeometry relative="1" as="geometry">
                        <mxPoint x="230" y="665" as="sourcePoint"/>
                    </mxGeometry>
                </mxCell>
                <mxCell id="78" value="" style="group" parent="1" vertex="1" connectable="0">
                    <mxGeometry x="30" y="840" width="1421.3333740234375" height="40" as="geometry"/>
                </mxCell>
                <mxCell id="79" value="" style="endArrow=none;dashed=1;html=1;" parent="78" source="81" edge="1">
                    <mxGeometry width="50" height="50" relative="1" as="geometry">
                        <mxPoint y="20" as="sourcePoint"/>
                        <mxPoint x="1421.3333740234375" y="20" as="targetPoint"/>
                    </mxGeometry>
                </mxCell>
                <mxCell id="80" value="" style="endArrow=none;dashed=1;html=1;" parent="78" target="81" edge="1">
                    <mxGeometry width="50" height="50" relative="1" as="geometry">
                        <mxPoint y="20" as="sourcePoint"/>
                        <mxPoint x="1421.3333740234375" y="20" as="targetPoint"/>
                    </mxGeometry>
                </mxCell>
                <mxCell id="81" value="修正完了" style="rounded=0;whiteSpace=wrap;html=1;" parent="78" vertex="1">
                    <mxGeometry x="670" width="100" height="40" as="geometry"/>
                </mxCell>
                <mxCell id="101" value="FormからEntityへの変換" style="html=1;verticalAlign=bottom;endArrow=block;curved=0;rounded=0;entryX=0;entryY=0;entryDx=0;entryDy=5;" parent="1" source="82" target="100" edge="1">
                    <mxGeometry relative="1" as="geometry">
                        <mxPoint x="520" y="935" as="sourcePoint"/>
                    </mxGeometry>
                </mxCell>
                <mxCell id="102" value="Product" style="html=1;verticalAlign=bottom;endArrow=open;dashed=1;endSize=8;curved=0;rounded=0;exitX=0;exitY=1;exitDx=0;exitDy=-5;" parent="1" source="100" target="82" edge="1">
                    <mxGeometry relative="1" as="geometry">
                        <mxPoint x="520" y="1005" as="targetPoint"/>
                        <mxPoint as="offset"/>
                    </mxGeometry>
                </mxCell>
                <mxCell id="105" value="editProduct(Product)" style="html=1;verticalAlign=bottom;endArrow=block;curved=0;rounded=0;entryX=0;entryY=0;entryDx=0;entryDy=5;" parent="1" source="82" target="104" edge="1">
                    <mxGeometry relative="1" as="geometry">
                        <mxPoint x="775" y="1035" as="sourcePoint"/>
                    </mxGeometry>
                </mxCell>
                <mxCell id="106" value="void" style="html=1;verticalAlign=bottom;endArrow=open;dashed=1;endSize=8;curved=0;rounded=0;exitX=0;exitY=1;exitDx=0;exitDy=-5;" parent="1" source="104" target="82" edge="1">
                    <mxGeometry relative="1" as="geometry">
                        <mxPoint x="775" y="1105" as="targetPoint"/>
                    </mxGeometry>
                </mxCell>
                <mxCell id="108" value="update(Product)" style="html=1;verticalAlign=bottom;endArrow=block;curved=0;rounded=0;entryX=0;entryY=0;entryDx=0;entryDy=5;" parent="1" source="104" target="107" edge="1">
                    <mxGeometry relative="1" as="geometry">
                        <mxPoint x="1010" y="1045" as="sourcePoint"/>
                    </mxGeometry>
                </mxCell>
                <mxCell id="109" value="Boolean" style="html=1;verticalAlign=bottom;endArrow=open;dashed=1;endSize=8;curved=0;rounded=0;exitX=0;exitY=1;exitDx=0;exitDy=-5;" parent="1" source="107" target="104" edge="1">
                    <mxGeometry relative="1" as="geometry">
                        <mxPoint x="1010" y="1115" as="targetPoint"/>
                    </mxGeometry>
                </mxCell>
                <mxCell id="113" value="boolean" style="html=1;verticalAlign=bottom;endArrow=open;dashed=1;endSize=8;curved=0;rounded=0;exitX=0;exitY=1;exitDx=0;exitDy=-5;" parent="1" source="111" target="107" edge="1">
                    <mxGeometry relative="1" as="geometry">
                        <mxPoint x="1265" y="1125" as="targetPoint"/>
                    </mxGeometry>
                </mxCell>
            </root>
        </mxGraphModel>
    </diagram>
</mxfile>